<svg width="15" height="12" viewBox="0 0 15 12" fill="none" xmlns="http://www.w3.org/2000/svg">
<g clip-path="url(#clip0_603_3241)">
<path d="M9.2197 1.28218L14.2002 6.26267L9.2197 11.2432L8.30366 10.3271L11.7204 6.91039L0.200195 6.91039L0.200195 5.61495L11.7204 5.61495L8.30366 2.19823L9.2197 1.28218Z" fill="white"/>
<path fill-rule="evenodd" clip-rule="evenodd" d="M0 7.11075L0 5.41531L11.2373 5.41531L8.02062 2.19859L9.21951 0.999702L14.4828 6.26303L9.21951 11.5264L8.02062 10.3275L11.2373 7.11075L0 7.11075ZM0.4 6.71076L12.203 6.71076L8.58631 10.3275L9.21951 10.9607L13.9172 6.26303L9.21951 1.56539L8.58631 2.19859L12.203 5.81531L0.4 5.81531L0.4 6.71076Z" fill="white"/>
</g>
<defs>
<clipPath id="clip0_603_3241">
<rect width="12" height="15" fill="white" transform="translate(0 12) rotate(-90)"/>
</clipPath>
</defs>
</svg>
