<svg width="20" height="20" viewBox="0 0 20 20" fill="none" xmlns="http://www.w3.org/2000/svg">
<path d="M9.54923 0.961397C10.1145 0.851241 10.7164 0.955538 11.2137 1.24538C13.1617 2.35788 15.1094 3.47077 17.0567 4.58444C17.407 4.78288 17.682 5.08562 17.9152 5.40905C18.1156 5.80124 18.257 6.23288 18.2516 6.67819C18.252 8.90515 18.2535 11.1325 18.2508 13.3594C18.2469 14.1919 17.7774 15.0016 17.0551 15.4165C15.2664 16.4407 13.4758 17.4622 11.6863 18.4852C11.3102 18.6958 10.9434 18.9466 10.5113 19.0258C10.3485 19.0481 10.2059 19.1481 10.0387 19.1489C9.88634 19.1649 9.74415 19.1048 9.60626 19.0505C9.34611 19.0055 9.09337 18.9208 8.85978 18.7977C7.16212 17.8262 5.4633 16.8571 3.76525 15.886C3.45314 15.704 3.13322 15.5344 2.82736 15.3419C2.26173 14.97 1.86955 14.3485 1.7754 13.6782C1.74494 13.4958 1.7547 13.3106 1.75353 13.127C1.75314 10.9516 1.75392 8.77624 1.75314 6.60046C1.75509 6.18054 1.89923 5.77663 2.08712 5.40593C2.31955 5.08405 2.59494 4.7821 2.94455 4.58444C4.87423 3.47976 6.80548 2.37819 8.73556 1.27429C8.98634 1.12429 9.26251 1.01687 9.54923 0.961397ZM9.53322 2.54655C7.69884 3.59343 5.86642 4.64382 4.03087 5.68913C6.02228 6.83835 8.01017 7.99421 10.0031 9.14069C11.9899 7.98757 13.9813 6.84226 15.9672 5.68757C14.1985 4.68093 12.4332 3.66804 10.6652 2.65983C10.5457 2.59265 10.4309 2.51491 10.3012 2.4696C10.0504 2.37898 9.76173 2.41101 9.53322 2.54655ZM3.25275 6.96999C3.25158 9.10046 3.25236 11.2305 3.25236 13.3606C3.25665 13.6766 3.44103 13.9798 3.71876 14.1309C5.56134 15.1848 7.40431 16.238 9.24806 17.2907C9.24962 15.0071 9.24767 12.7239 9.24884 10.4403C7.2508 9.28249 5.2504 8.12858 3.25275 6.96999ZM10.7516 10.4372C10.7539 12.7219 10.75 15.0063 10.7535 17.2911C12.6043 16.2329 14.4559 15.1755 16.3067 14.1176C16.5684 13.9626 16.743 13.6673 16.7488 13.3634C16.7485 11.2325 16.7488 9.10163 16.7485 6.97116C14.7488 8.12507 12.7527 9.28523 10.7516 10.4372Z" fill="#BDC4CE"/>
</svg>
