<svg width="18" height="18" viewBox="0 0 18 18" fill="none" xmlns="http://www.w3.org/2000/svg">
<path fill-rule="evenodd" clip-rule="evenodd" d="M0.599609 8.99961C0.599609 4.3603 4.3603 0.599609 8.99961 0.599609C13.6389 0.599609 17.3996 4.3603 17.3996 8.99961C17.3996 13.6389 13.6389 17.3996 8.99961 17.3996C4.3603 17.3996 0.599609 13.6389 0.599609 8.99961ZM8.99961 2.39961C5.35442 2.39961 2.39961 5.35442 2.39961 8.99961C2.39961 12.6448 5.35442 15.5996 8.99961 15.5996C12.6448 15.5996 15.5996 12.6448 15.5996 8.99961C15.5996 5.35442 12.6448 2.39961 8.99961 2.39961Z" fill="#EC7653"/>
<path fill-rule="evenodd" clip-rule="evenodd" d="M11.886 6.86321C12.2375 7.21469 12.2375 7.78453 11.886 8.13601L8.88601 11.136C8.53453 11.4875 7.96469 11.4875 7.61321 11.136L6.11321 9.63601C5.76174 9.28453 5.76174 8.71469 6.11321 8.36321C6.46469 8.01174 7.03453 8.01174 7.38601 8.36321L8.24961 9.22682L10.6132 6.86321C10.9647 6.51174 11.5345 6.51174 11.886 6.86321Z" fill="#EC7653"/>
</svg>
