<svg width="20" height="20" viewBox="0 0 20 20" fill="none" xmlns="http://www.w3.org/2000/svg">
<path fill-rule="evenodd" clip-rule="evenodd" d="M16.6014 3.39886C16.9334 3.73081 16.9334 4.269 16.6014 4.60094L4.60143 16.6009C4.26949 16.9329 3.7313 16.9329 3.39935 16.6009C3.0674 16.269 3.0674 15.7308 3.39935 15.3989L15.3994 3.39886C15.7313 3.06692 16.2695 3.06692 16.6014 3.39886Z" fill="#87899A"/>
<path fill-rule="evenodd" clip-rule="evenodd" d="M3.39935 3.39886C3.7313 3.06692 4.26949 3.06692 4.60143 3.39886L16.6014 15.3989C16.9334 15.7308 16.9334 16.269 16.6014 16.6009C16.2695 16.9329 15.7313 16.9329 15.3994 16.6009L3.39935 4.60094C3.0674 4.269 3.0674 3.73081 3.39935 3.39886Z" fill="#87899A"/>
</svg>
