<svg width="20" height="20" viewBox="0 0 20 20" fill="none" xmlns="http://www.w3.org/2000/svg">
<path d="M3.41797 4.14251C3.41875 3.76165 3.75586 3.42141 4.13711 3.41868C5.18008 3.41712 6.22344 3.41868 7.2668 3.41751C7.45977 3.41204 7.64961 3.48938 7.79063 3.61946C8.00625 3.81516 8.08359 4.14251 7.98555 4.41556C7.88477 4.71282 7.57891 4.92688 7.26445 4.91712C6.83516 4.91634 6.40586 4.91712 5.97695 4.91673C6.84336 5.78391 7.71055 6.65071 8.57734 7.51751C8.72734 7.66477 8.81602 7.87493 8.8043 8.08626C8.79961 8.34016 8.64766 8.58079 8.42812 8.7054C8.15156 8.87063 7.76289 8.82884 7.53672 8.59602C6.66289 7.72376 5.79063 6.84954 4.9168 5.97688C4.91563 6.42024 4.91914 6.86399 4.91523 7.30774C4.90977 7.70579 4.53945 8.05071 4.1418 8.02766C3.76133 8.02298 3.41875 7.68821 3.41797 7.3054C3.41797 6.2511 3.41797 5.19681 3.41797 4.14251Z" fill="#BDC4CE"/>
<path d="M11.9732 4.21789C11.9435 3.88 12.1748 3.54328 12.5006 3.44953C12.6264 3.40813 12.7599 3.41867 12.8904 3.41789C13.8806 3.41867 14.8709 3.41672 15.8611 3.41867C16.2416 3.42219 16.5779 3.75852 16.5818 4.13938C16.583 5.18039 16.5814 6.2218 16.5826 7.26321C16.5892 7.53117 16.4392 7.79602 16.2064 7.92922C16.0197 8.0343 15.7861 8.05969 15.5838 7.98547C15.2873 7.88547 15.0724 7.58117 15.0826 7.2675C15.0838 6.83742 15.083 6.40696 15.0834 5.97688C14.2494 6.81008 13.4158 7.64406 12.5822 8.47766C12.4228 8.65774 12.2068 8.81164 11.9556 8.80461C11.6029 8.82141 11.2724 8.54719 11.2088 8.20344C11.1592 7.9675 11.2306 7.70696 11.4037 7.53703C12.2764 6.66281 13.1506 5.79055 14.0232 4.91672C13.5795 4.91555 13.1357 4.91946 12.692 4.91516C12.3197 4.91242 11.9908 4.58821 11.9732 4.21789Z" fill="#BDC4CE"/>
<path d="M7.51944 11.4206C7.66514 11.271 7.8749 11.1839 8.08467 11.1956C8.35889 11.1999 8.61748 11.3761 8.73272 11.6234C8.87022 11.9031 8.80811 12.2702 8.57686 12.482C7.71084 13.3495 6.84326 14.2156 5.97686 15.0831C6.42061 15.0839 6.86397 15.0804 7.30772 15.0847C7.67998 15.0906 8.0085 15.4136 8.02569 15.7843C8.06201 16.1898 7.71397 16.5827 7.30342 16.5816C6.24912 16.5823 5.19444 16.582 4.13975 16.5816C3.7292 16.5804 3.37764 16.1906 3.41709 15.782C3.41905 14.7531 3.41709 13.7241 3.41826 12.6952C3.41826 12.255 3.8667 11.8917 4.29756 11.9843C4.63584 12.0351 4.90576 12.3499 4.91553 12.6902C4.91905 13.1343 4.91592 13.5788 4.9167 14.023C5.78467 13.1558 6.65186 12.2878 7.51944 11.4206Z" fill="#BDC4CE"/>
<path d="M11.2078 11.7969C11.2535 11.5305 11.4668 11.3106 11.7199 11.2274C11.9652 11.154 12.2543 11.2051 12.441 11.3864C13.3215 12.2668 14.2015 13.1477 15.0828 14.0278C15.084 13.5825 15.0816 13.1372 15.0836 12.6918C15.0863 12.3313 15.3922 12.0133 15.7468 11.9766C16.0929 11.9317 16.4543 12.1641 16.5484 12.5016C16.5797 12.6016 16.5851 12.7071 16.5824 12.811C16.5808 13.8274 16.5832 14.8442 16.5812 15.8606C16.5754 16.2399 16.2422 16.5809 15.8605 16.5817C14.8066 16.5825 13.7527 16.5817 12.6988 16.5821C12.3015 16.5829 11.9523 16.2172 11.9718 15.8207C11.9676 15.4348 12.3074 15.0907 12.6918 15.084C13.1355 15.0817 13.5793 15.0836 14.023 15.0832C13.1496 14.209 12.2754 13.3356 11.4019 12.4618C11.2343 12.2895 11.157 12.0325 11.2078 11.7969Z" fill="#BDC4CE"/>
</svg>
