<svg width="15" height="20" viewBox="0 0 15 20" fill="none" xmlns="http://www.w3.org/2000/svg">
<path d="M7.43744 0H7.56088C8.44596 0.0242188 9.33388 0.163672 10.1599 0.478516C12.1316 1.19023 13.7524 2.74883 14.4987 4.64805C14.816 5.43203 14.9795 6.27031 14.9985 7.11094C15.0232 8.18711 14.7411 9.24531 14.3676 10.252C13.7986 11.7281 13.0138 13.118 12.1502 14.4512C11.3627 15.6504 10.5091 16.809 9.59491 17.9215C9.10522 18.5383 8.5868 19.1332 8.06069 19.7215C7.92997 19.8785 7.73935 19.9902 7.52688 20H7.47427C7.20353 19.9949 6.99875 19.8078 6.84294 19.6141C6.04284 18.7262 5.29455 17.7969 4.5592 16.859C3.48917 15.4527 2.49036 13.9918 1.65101 12.4453C1.15808 11.5117 0.699557 10.5555 0.391578 9.54805C0.172634 8.84492 0.0208712 8.11758 0.000636045 7.38164C-0.011505 6.45039 0.149971 5.51523 0.502062 4.64687C1.18763 2.90781 2.60247 1.45117 4.35442 0.675781C5.31478 0.234766 6.37712 0.0246094 7.43744 0ZM7.26666 3.60938C6.1853 3.66563 5.14926 4.20664 4.4985 5.04023C3.98088 5.69258 3.70164 6.51914 3.72956 7.34141C3.74616 8.11016 4.03107 8.86914 4.52035 9.475C5.08167 10.1734 5.91253 10.668 6.81501 10.8238C7.60459 10.9656 8.44191 10.8574 9.16148 10.5117C10.0065 10.1133 10.6856 9.39961 11.0207 8.55078C11.3141 7.825 11.3513 7.00664 11.1324 6.25703C10.9082 5.4875 10.4132 4.79453 9.74668 4.31992C9.04249 3.8082 8.14527 3.55391 7.26666 3.60938Z" fill="#202348"/>
</svg>
