<svg width="12" height="12" viewBox="0 0 12 12" fill="none" xmlns="http://www.w3.org/2000/svg">
<path d="M0.100586 10.8127C0.100586 11.4662 0.635263 12.0009 1.28876 12.0009H2.83338L0.100586 9.26807V10.8127Z" fill="#828395"/>
<path d="M11.7444 2.25852L9.8433 0.357432C9.36803 -0.117842 8.65512 -0.117842 8.17986 0.357432L8.06104 0.47625C7.8234 0.713886 7.8234 1.07034 8.06104 1.30798L10.7938 4.0408C11.0315 4.27844 11.3879 4.27844 11.6256 4.0408L11.7444 3.92198C12.2196 3.44671 12.2196 2.7338 11.7444 2.25852Z" fill="#828395"/>
<path d="M7.22947 2.14014C6.99184 1.9025 6.63539 1.9025 6.39775 2.14014L0.991571 7.54638C0.694528 7.84342 0.694528 8.19988 0.932162 8.43751L3.66496 11.1703C3.90259 11.408 4.25904 11.408 4.49668 11.1703L9.90286 5.7641C10.1405 5.52646 10.1405 5.17001 9.90286 4.93237L7.22947 2.14014Z" fill="#828395"/>
</svg>
