<svg width="14" height="20" viewBox="0 0 14 20" fill="none" xmlns="http://www.w3.org/2000/svg">
<path d="M2.83856 0H11.1601C11.8891 0.0179688 12.6085 0.271484 13.1265 0.714453C13.6941 1.18555 14.0097 1.86289 13.9992 2.53945C14.0006 7.43477 13.9992 12.3305 13.9997 17.2262C14.0006 17.4621 14.0029 17.7004 13.9528 17.9336C13.8228 18.6 13.3575 19.2109 12.7008 19.5824C12.2474 19.8449 11.7053 19.9832 11.161 20H2.80399C2.28464 19.975 1.76892 19.843 1.3337 19.5945C0.705202 19.2457 0.239512 18.6836 0.0767017 18.0551C-0.00379373 17.7711 -0.00152012 17.4773 0.000753765 17.1871C0.000753765 12.4078 0.000753765 7.62891 0.000753765 2.85C0.000753765 2.58828 -0.0078867 2.32461 0.047596 2.06602C0.163564 1.47422 0.542393 0.925 1.08812 0.550391C1.58019 0.206641 2.20642 0.0175781 2.83856 0ZM1.32415 3.34141C1.32415 7.19766 1.3237 11.0535 1.32461 14.9094C5.10835 14.9098 8.89208 14.9098 12.6758 14.9098C12.6767 11.0535 12.6763 7.19766 12.6763 3.34141C8.89208 3.34102 5.10835 3.34102 1.32415 3.34141ZM6.73417 16.1414C6.39354 16.2004 6.08521 16.3824 5.90011 16.6348C5.55175 17.0934 5.65635 17.7641 6.15206 18.1141C6.6705 18.5063 7.54595 18.4617 7.99799 18.0105C8.44322 17.5984 8.44186 16.9004 7.99709 16.4887C7.69011 16.1867 7.18713 16.0578 6.73417 16.1414Z" fill="white"/>
</svg>
