<svg width="12" height="12" viewBox="0 0 12 12" fill="none" xmlns="http://www.w3.org/2000/svg">
<path d="M0.64937 0.0994045C0.559632 0.102295 0.471392 0.123017 0.389873 0.160343C0.308354 0.197669 0.235213 0.25084 0.174782 0.316709C0.11435 0.382579 0.0678569 0.459806 0.0380538 0.543819C0.00825079 0.627832 -0.0042559 0.716923 0.00127442 0.805817C0.0909319 2.33045 0.513603 6.05055 2.5373 8.37053C4.96061 11.1657 8.11655 12.1287 11.3545 11.9864C11.528 11.9762 11.6912 11.9009 11.811 11.7759C11.9308 11.651 11.9984 11.4855 12 11.3131V8.87112C11.998 8.64328 11.9188 8.42272 11.7753 8.24485C11.6318 8.06697 11.4321 7.9421 11.2085 7.89027L9.58694 7.53452C9.38638 7.49211 9.17762 7.51037 8.98764 7.58693C8.79766 7.66349 8.63521 7.79483 8.52129 7.96396L8.16266 8.50267C8.12974 8.55196 8.08051 8.58832 8.02347 8.60548C7.96642 8.62264 7.90513 8.61953 7.85014 8.59669C7.02529 8.24348 3.73871 6.71885 3.37752 4.1473C3.37044 4.09764 3.37834 4.04701 3.40022 4.00179C3.4221 3.95657 3.45699 3.91879 3.50048 3.8932L4.15113 3.49933C4.3296 3.38962 4.46978 3.22817 4.55271 3.03683C4.63563 2.8455 4.65731 2.63351 4.61479 2.42955L4.25872 0.793112C4.20667 0.563826 4.07612 0.359521 3.8893 0.214971C3.70248 0.070421 3.47093 -0.00543877 3.23407 0.000303638L0.64937 0.0994045Z" fill="#838597"/>
</svg>
