<svg width="20" height="20" viewBox="0 0 20 20" fill="none" xmlns="http://www.w3.org/2000/svg">
<g clip-path="url(#clip0_668_7773)">
<path d="M0 3.45123C0.139453 3.32857 0.31875 3.24771 0.506641 3.25201C4.24492 3.25162 7.98359 3.2524 11.7219 3.25162C12.1137 3.24303 12.4648 3.59185 12.4648 3.98287C12.4668 4.87896 12.4652 5.77467 12.4652 6.67076C13.7531 6.66959 15.0406 6.66998 16.3281 6.67037C16.5281 6.66607 16.7352 6.72506 16.8824 6.86529C17.4074 7.3442 17.9301 7.82584 18.4547 8.30514C19.2203 8.95475 19.7613 9.87623 19.8957 10.8766C19.9445 11.2196 19.9289 11.5669 19.9316 11.9122C19.9305 12.7067 19.9328 13.5016 19.9305 14.2965C19.927 14.6872 19.5703 15.0282 19.1805 15.0153C18.8031 15.0141 18.4258 15.0149 18.0484 15.0145C17.9652 15.7551 17.5609 16.4458 16.973 16.8997C16.3227 17.4149 15.4656 17.6547 14.6422 17.5649C13.968 17.4969 13.3164 17.2094 12.8164 16.7512C12.3215 16.304 11.9938 15.6778 11.9145 15.0145C10.8488 15.0137 9.78281 15.0165 8.71719 15.0133C8.63711 15.6965 8.28984 16.3399 7.77188 16.7911C7.1668 17.3254 6.35273 17.6102 5.54688 17.5817C4.76406 17.5567 3.98398 17.2458 3.42539 16.6922C2.96133 16.2528 2.65703 15.6504 2.5832 15.0153C1.8918 15.0137 1.2 15.0153 0.508594 15.0145C0.319922 15.0172 0.134375 14.9426 0 14.811V3.45123ZM1.26406 13.5149C1.7875 13.5149 2.31094 13.5188 2.83437 13.5129C3.22383 12.6837 4.03125 12.0895 4.91719 11.8895C5.62852 11.7239 6.39688 11.8047 7.05391 12.1254C7.66523 12.4118 8.17734 12.909 8.47109 13.518C9.30312 13.5126 10.1352 13.5176 10.9672 13.5153C10.9668 10.5946 10.9668 7.6735 10.9668 4.7524C7.73281 4.7485 4.49883 4.75279 1.26484 4.75045C1.26367 7.67193 1.26563 10.5934 1.26406 13.5149ZM12.4664 8.17428C12.4633 9.78873 12.4691 11.4028 12.4633 13.0172C12.8828 12.4805 13.4816 12.0907 14.1395 11.9165C14.8922 11.7133 15.7172 11.7922 16.4164 12.1387C17.0129 12.4297 17.5137 12.9176 17.8047 13.5161C18.0141 13.5149 18.2234 13.5161 18.4328 13.5157C18.432 12.7993 18.434 12.0833 18.4316 11.3672C18.4223 10.6801 18.0992 10.0165 17.598 9.55279C17.0895 9.09654 16.5938 8.62506 16.0828 8.17193C14.8773 8.17623 13.6719 8.17154 12.4664 8.17428ZM5.32148 13.3348C4.8293 13.4184 4.36641 13.7411 4.1707 14.2079C4.02148 14.5356 4.03555 14.929 4.20117 15.2477C4.34492 15.5465 4.6043 15.7766 4.89922 15.92C5.34609 16.129 5.87969 16.1372 6.33438 15.9481C6.74102 15.7805 7.08086 15.4297 7.19297 14.9997C7.33086 14.5047 7.10312 13.9633 6.70391 13.6579C6.32031 13.3516 5.79961 13.2473 5.32148 13.3348ZM14.5906 13.3465C14.1984 13.4313 13.8344 13.6637 13.6137 14.002C13.4191 14.2887 13.3457 14.6606 13.4383 14.9973C13.5488 15.427 13.8871 15.7782 14.2926 15.9462C14.9488 16.2282 15.7953 16.0766 16.2578 15.5141C16.5273 15.1962 16.6438 14.7395 16.5102 14.3383C16.3965 13.9669 16.1121 13.6641 15.7715 13.4864C15.409 13.3067 14.9852 13.2618 14.5906 13.3465Z" fill="#BDC4CE"/>
</g>
<defs>
<clipPath id="clip0_668_7773">
<rect width="20" height="20" fill="white"/>
</clipPath>
</defs>
</svg>
