<svg width="13" height="14" viewBox="0 0 13 14" fill="none" xmlns="http://www.w3.org/2000/svg">
<path d="M13 10.5C13 12.4627 10.1446 14 6.5 14C2.8554 14 0 12.4627 0 10.5C0 8.53731 2.8554 7 6.5 7C10.1446 7 13 8.53731 13 10.5ZM6.5 5.92308C7.08922 5.92308 7.66521 5.74939 8.15514 5.42397C8.64506 5.09855 9.02691 4.63602 9.25239 4.09487C9.47788 3.55372 9.53688 2.95825 9.42192 2.38377C9.30697 1.80929 9.02323 1.28159 8.60659 0.867416C8.18995 0.453237 7.65911 0.171178 7.08121 0.0569065C6.5033 -0.0573652 5.90429 0.0012832 5.35992 0.225435C4.81555 0.449587 4.35027 0.829175 4.02291 1.3162C3.69556 1.80322 3.52083 2.3758 3.52083 2.96154C3.52178 3.7467 3.83596 4.49943 4.39446 5.05462C4.95295 5.60982 5.71017 5.92214 6.5 5.92308V5.92308Z" fill="#838597"/>
</svg>
