<svg width="18" height="18" viewBox="0 0 18 18" fill="none" xmlns="http://www.w3.org/2000/svg">
<path fill-rule="evenodd" clip-rule="evenodd" d="M9 2.5C5.41015 2.5 2.5 5.41015 2.5 9C2.5 12.5899 5.41015 15.5 9 15.5C12.5899 15.5 15.5 12.5899 15.5 9C15.5 5.41015 12.5899 2.5 9 2.5ZM0.5 9C0.5 4.30558 4.30558 0.5 9 0.5C13.6944 0.5 17.5 4.30558 17.5 9C17.5 13.6944 13.6944 17.5 9 17.5C4.30558 17.5 0.5 13.6944 0.5 9Z" fill="#EB5757"/>
<path fill-rule="evenodd" clip-rule="evenodd" d="M11.9571 6.04289C12.3476 6.43342 12.3476 7.06658 11.9571 7.45711L7.45711 11.9571C7.06658 12.3476 6.43342 12.3476 6.04289 11.9571C5.65237 11.5666 5.65237 10.9334 6.04289 10.5429L10.5429 6.04289C10.9334 5.65237 11.5666 5.65237 11.9571 6.04289Z" fill="#EB5757"/>
<path fill-rule="evenodd" clip-rule="evenodd" d="M6.04289 6.04289C6.43342 5.65237 7.06658 5.65237 7.45711 6.04289L11.9571 10.5429C12.3476 10.9334 12.3476 11.5666 11.9571 11.9571C11.5666 12.3476 10.9334 12.3476 10.5429 11.9571L6.04289 7.45711C5.65237 7.06658 5.65237 6.43342 6.04289 6.04289Z" fill="#EB5757"/>
</svg>
